<?xml version="1.0" encoding="UTF-8" standalone="no"?>
<svg
   fill="none"
   viewBox="0 0 348 348"
   version="1.1"
   id="svg6"
   sodipodi:docname="New World.svg"
   inkscape:version="1.2.1 (9c6d41e410, 2022-07-14)"
   xmlns:inkscape="http://www.inkscape.org/namespaces/inkscape"
   xmlns:sodipodi="http://sodipodi.sourceforge.net/DTD/sodipodi-0.dtd"
   xmlns="http://www.w3.org/2000/svg"
   xmlns:svg="http://www.w3.org/2000/svg">
  <defs
     id="defs10" />
  <sodipodi:namedview
     id="namedview8"
     pagecolor="#ffffff"
     bordercolor="#000000"
     borderopacity="0.25"
     inkscape:showpageshadow="2"
     inkscape:pageopacity="0.0"
     inkscape:pagecheckerboard="0"
     inkscape:deskcolor="#d1d1d1"
     showgrid="false"
     inkscape:zoom="2.4051724"
     inkscape:cx="128.05735"
     inkscape:cy="174.62366"
     inkscape:window-width="1920"
     inkscape:window-height="1017"
     inkscape:window-x="1912"
     inkscape:window-y="-8"
     inkscape:window-maximized="1"
     inkscape:current-layer="svg6" />
  <rect
     width="336.91"
     height="337.67"
     x="5.08"
     y="5.78"
     stroke="#000"
     stroke-width="2"
     id="rect2" />
  <ellipse
     cx="298.29"
     cy="40.55"
     stroke="#000"
     stroke-width="2"
     rx="15.9"
     ry="15.51"
     id="ellipse4" />
  <rect
     style="fill:#ffffff;stroke:#000000;stroke-width:3;paint-order:normal;stroke-linecap:butt;stroke-linejoin:miter"
     id="rect951"
     width="207.8853"
     height="200.40143"
     x="72.344086"
     y="88.559135" />
  <path
     sodipodi:type="star"
     style="fill:#ffffff;stroke:#000000;stroke-width:3;stroke-linecap:butt;stroke-linejoin:miter;paint-order:normal"
     id="path1011"
     inkscape:flatsided="true"
     sodipodi:sides="3"
     sodipodi:cx="134.29391"
     sodipodi:cy="28.272402"
     sodipodi:r1="17.688583"
     sodipodi:r2="8.8442917"
     sodipodi:arg1="0.51623067"
     sodipodi:arg2="1.5634282"
     inkscape:rounded="0"
     inkscape:randomized="0"
     d="m 149.67743,37.003584 -30.6367,0.225739 15.12285,-26.645024 z"
     inkscape:transform-center-x="-0.065165083"
     inkscape:transform-center-y="-4.3655914"
     transform="translate(34.508961,32.845878)" />
  <path
     sodipodi:type="star"
     style="fill:#ffffff;stroke:#000000;stroke-width:3;stroke-linecap:butt;stroke-linejoin:miter;paint-order:normal"
     id="path1015"
     inkscape:flatsided="true"
     sodipodi:sides="3"
     sodipodi:cx="134.29391"
     sodipodi:cy="28.272402"
     sodipodi:r1="17.688583"
     sodipodi:r2="8.8442917"
     sodipodi:arg1="0.51623067"
     sodipodi:arg2="1.5634282"
     inkscape:rounded="0"
     inkscape:randomized="0"
     d="m 149.67743,37.003584 -30.6367,0.225739 15.12285,-26.645024 z"
     inkscape:transform-center-x="-0.065158876"
     inkscape:transform-center-y="4.3713274"
     transform="matrix(0.99990483,0,0,-1.0013129,34.436303,336.57111)" />
  <path
     sodipodi:type="star"
     style="fill:#ffffff;stroke:#000000;stroke-width:3;stroke-linecap:butt;stroke-linejoin:miter;paint-order:normal"
     id="path1066"
     inkscape:flatsided="true"
     sodipodi:sides="3"
     sodipodi:cx="292.28674"
     sodipodi:cy="125.14695"
     sodipodi:r1="18.709677"
     sodipodi:r2="9.3548384"
     sodipodi:arg1="0"
     sodipodi:arg2="1.0471976"
     inkscape:rounded="0"
     inkscape:randomized="0"
     d="M 310.99642,125.14695 282.9319,141.35001 V 108.94389 Z"
     inkscape:transform-center-x="-4.6774194"
     transform="translate(11.641577,62.365591)" />
  <path
     sodipodi:type="star"
     style="fill:#ffffff;stroke:#000000;stroke-width:3;stroke-linecap:butt;stroke-linejoin:miter;paint-order:normal"
     id="path1068"
     inkscape:flatsided="true"
     sodipodi:sides="3"
     sodipodi:cx="292.28674"
     sodipodi:cy="125.14695"
     sodipodi:r1="18.709677"
     sodipodi:r2="9.3548384"
     sodipodi:arg1="0"
     sodipodi:arg2="1.0471976"
     inkscape:rounded="0"
     inkscape:randomized="0"
     d="M 310.99642,125.14695 282.9319,141.35001 V 108.94389 Z"
     inkscape:transform-center-x="4.6354831"
     transform="matrix(-0.99103542,0,0,1.0006176,332.07127,60.625217)" />
  <text
     xml:space="preserve"
     style="font-size:133.333px;font-family:Showtime;-inkscape-font-specification:Showtime;fill:#ffffff;stroke:#000000;stroke-width:3"
     x="165.4767"
     y="220.77419"
     id="text903"><tspan
       sodipodi:role="line"
       id="tspan901"
       x="165.4767"
       y="220.77419" /></text>
  <g
     aria-label="5"
     transform="scale(0.94875383,1.0540142)"
     id="text907"
     style="font-size:211.916px;font-family:Fasthand;-inkscape-font-specification:Fasthand;fill:#000000;stroke:#000000;stroke-width:4.76812">
    <path
       d="m 161.51968,167.55758 q 0.8278,0 1.2417,-0.31042 l 1.24169,-0.72433 q 1.55212,-0.72432 3.10424,-0.82779 1.34517,-0.10348 3.31119,-0.8278 0.82779,-0.20695 1.44864,-0.62085 0.62085,-0.51737 1.6556,-0.62084 0.51737,-0.4139 1.34517,-0.4139 0.51737,0 1.34517,-0.20695 0.82779,-0.20695 1.55211,-0.4139 0.72433,-0.20695 1.34517,-0.4139 1.34517,-0.20695 1.86255,-0.10347 0.51737,0.10347 1.86254,-0.10348 2.69034,-0.82779 4.96678,-0.82779 2.06949,0.51737 2.58687,0.31042 0.31042,-0.10348 0.93127,-0.10348 2.27644,0 3.93203,1.34517 1.55212,1.34517 3.51814,2.58687 0.93127,0.51737 1.86254,0.93127 0.93127,0.4139 1.75907,0.8278 0.8278,0.4139 1.6556,0.82779 0.93127,0.4139 1.75906,0.93128 1.13822,1.13822 1.2417,1.34517 0.20695,0.31042 0.8278,0.31042 2.27644,2.69034 3.93203,5.27721 1.65559,2.58686 2.27644,6.72584 0.4139,2.0695 0.62085,3.82857 0.20695,1.75906 0.20695,4.03551 0,1.55211 -0.31042,3.31118 -0.31043,1.6556 -0.31043,3.31119 0,3.00076 -0.8278,5.17373 -0.82779,1.65559 -1.34517,3.00076 -0.51737,1.34517 -1.13822,3.00077 -1.03474,3.10424 -2.37991,6.31195 -1.34517,3.20771 -3.00077,6.105 -1.24169,1.75907 -1.13822,1.86254 0.10348,0.10348 -0.10347,0.62085 l -1.86254,1.86254 q -1.03475,1.6556 -2.0695,3.20772 -1.03474,1.55212 -2.48339,2.58686 -0.62084,1.55212 -2.37991,2.89729 -1.6556,1.13822 -2.79382,2.69034 -1.13822,1.75907 -2.27644,2.48339 -0.31042,0.31043 -1.03474,0.51738 -0.72433,0.20694 -1.03475,0.51737 -0.10348,1.13822 -1.03475,1.86254 -0.93127,0.72432 -1.44864,1.6556 -4.44941,2.17296 -7.03627,2.69034 -1.44865,0.31042 -2.89729,0.72432 -1.44865,0.31042 -2.89729,0.72432 -2.69034,0.8278 -5.07026,1.75907 -2.37991,0.93127 -4.86331,1.96602 -1.13822,0.41389 -2.27644,0.62084 -1.13822,0.31043 -2.27644,0.4139 -1.34517,0 -1.96602,-0.10347 -0.62084,-0.10348 -1.96601,0.10347 -1.96602,0.62085 -2.48339,0.4139 -0.20695,-0.10347 -0.4139,-0.20695 -0.20695,-0.10347 -0.4139,-0.20695 -0.8278,0 -1.65559,0 -0.72433,0 -1.44865,0.10348 -1.44864,0.20695 -2.89729,-0.93128 -2.17297,-0.62084 -4.34593,-0.51737 -2.27644,0.10348 -4.55288,-0.93127 -0.4139,-0.20695 -1.03475,-0.62085 -0.62085,-0.4139 -1.44865,-1.03474 -0.51737,-0.4139 -1.13822,-0.72433 -0.51737,-0.41389 -1.03474,-0.72432 -1.13822,-0.62085 -1.75907,-1.44864 -1.96602,-3.00077 -3.20771,-4.24246 -1.13822,-1.2417 -1.96602,-2.58687 -1.13822,-1.24169 -1.96602,-3.31118 l -1.55212,-3.72509 q -0.51737,-0.62085 -0.62085,-1.34517 -0.10347,-0.8278 -0.62084,-1.55212 0.4139,-1.96602 0.20695,-4.55288 -0.20695,-2.48339 0.82779,-4.55288 1.75907,-0.62085 2.79382,-1.96602 1.13822,-1.44865 2.79381,-2.17297 2.17297,0.72432 4.34594,2.89729 0.93127,0.4139 1.44864,1.2417 l 1.2417,1.86254 q 1.65559,2.58686 2.79381,3.93203 0.51737,0.51738 0.93127,1.13822 0.4139,0.51738 0.8278,1.13822 1.86254,1.6556 4.34593,3.10424 0.51737,0.4139 1.03475,0.8278 0.51737,0.4139 0.93127,0.93127 1.03475,1.03475 1.96602,1.55212 2.27644,0.62085 2.58686,0.93127 0.4139,0.4139 0.72432,0.51737 2.0695,0 2.17297,0.10348 0.20695,0.20695 0.51737,0.31042 1.2417,0.4139 3.41467,0.20695 2.17296,-0.20695 3.00076,-0.4139 3.72509,0.20695 6.31195,-1.44864 1.44865,-0.8278 2.79382,-1.55212 1.34517,-0.72432 2.69034,-1.34517 1.65559,-1.03475 2.89728,-1.86254 1.2417,-0.8278 2.4834,-1.6556 1.44864,-1.03474 2.69034,-2.27644 1.24169,-1.24169 2.48339,-2.48339 0.62084,-0.51737 1.24169,-1.03474 0.62085,-0.62085 1.13822,-1.34517 0.51737,-0.72433 1.13822,-1.2417 0.62085,-0.62085 1.2417,-1.13822 1.24169,-1.03475 2.48339,-2.06949 1.24169,-1.03475 2.06949,-2.27644 0.93127,-2.0695 1.65559,-3.93204 0.31043,-0.8278 0.62085,-1.55212 0.31043,-0.72432 0.51738,-1.24169 0.51737,-1.13822 0.93127,-2.79382 2.06949,-3.93203 3.00076,-8.48492 0.93127,-4.55288 -0.10347,-9.72661 -3.10424,-2.48339 -6.62238,-4.34593 -3.51814,-1.86255 -7.65712,-3.51814 -2.27644,-0.20695 -4.65636,0.31042 l -4.8633,0.93128 q -0.8278,0.10347 -1.44865,0.20694 -0.51737,0.10348 -0.8278,0.20695 -0.31042,0.10348 -0.62084,0.20695 -0.31043,0.10348 -0.62085,0.20695 -0.62085,0.20695 -1.13822,0.31043 l -1.34517,0.31042 q -4.24246,1.86254 -7.3467,4.13898 -3.31119,2.37992 -6.9328,4.13899 -1.24169,1.24169 -3.31119,2.06949 -2.17296,0.20695 -3.72508,-0.8278 -2.27644,1.86255 -4.96678,0.62085 -1.6556,-1.03474 -1.55212,-1.96602 0.10347,-0.82779 -1.34517,-1.96601 -1.6556,-1.86255 -2.06949,-4.65636 -0.4139,-2.79382 0.41389,-5.27721 1.6556,-1.03474 2.37992,-3.20771 0.72432,-2.17297 1.34517,-4.24246 0.8278,-1.96602 1.65559,-3.82856 0.8278,-1.96602 1.6556,-3.93203 1.55212,-3.41467 2.69034,-7.96755 0.62085,-1.44864 1.24169,-2.79381 0.62085,-1.44865 1.34517,-2.79382 1.44865,-2.69034 2.79382,-5.58763 1.03474,-1.75906 1.86254,-3.41466 0.8278,-1.65559 1.44865,-3.31119 1.24169,-3.20771 3.51813,-5.48415 0.4139,-0.31042 1.44865,-0.93127 0.82779,-0.51737 1.44864,-1.13822 1.44865,-1.34517 1.34517,-2.37992 -0.10347,-1.03474 1.13822,-2.17296 1.13822,-2.17297 2.58687,-4.55289 1.34517,-2.27644 2.58686,-5.17373 0.20695,-0.51737 0.4139,-1.13822 0.20695,-0.62085 0.4139,-1.34517 0.20695,-0.72432 0.4139,-1.34517 0.20695,-0.72432 0.4139,-1.34517 0.51737,-1.34517 0.93127,-2.58686 0.4139,-1.34517 0.72432,-2.58687 0.62085,-2.58686 2.27644,-4.345933 0.93127,-0.620847 2.89729,-1.034746 4.34593,-2.483391 9.31271,-2.586865 4.96679,-0.103475 9.93357,-0.103475 0.4139,0 1.24169,-0.206949 0.8278,-0.206949 1.44865,-0.206949 3.10424,0.206949 6.41542,0 3.31119,-0.206949 6.00153,0 3.93204,-1.034746 8.27797,-1.34517 4.03551,-0.310424 7.65712,-0.931272 3.93204,-0.517373 6.82932,-1.34517 3.10424,-0.931271 6.82933,-0.724322 0.62085,0 1.24169,0 0.62085,0 1.34517,0.103475 1.13822,0.103474 2.37992,-0.724322 0.8278,0 1.65559,0 0.93128,0 1.86255,-0.103475 1.75906,-0.103475 3.10423,0.517373 0.31043,0.413898 0.62085,0.827797 0.31043,0.413898 0.72432,0.827797 0.72433,0.724322 0.51738,2.48339 -3.20772,4.138985 -6.82933,5.380676 -3.20771,1.13822 -6.41542,3.31119 -1.96602,2.17297 -3.41466,2.58687 -0.72433,0.20695 -1.55212,0.62084 -0.8278,0.31043 -1.6556,0.72433 -1.03474,0.4139 -1.75907,1.03474 -0.82779,0.72433 -1.55211,0.8278 l -4.13899,0.4139 q -3.10424,0.10347 -4.55288,0.51737 -1.2417,0.31043 -2.48339,0.31043 -1.03475,0.10347 -2.17297,0 -1.34517,-0.20695 -2.58686,0.20694 -2.17297,0.10348 -2.89729,0.8278 -1.44865,0.10348 -2.89729,0.31042 -1.34517,0.20695 -2.69034,0.4139 l -5.58763,0.93127 q -2.27644,0.4139 -4.55288,0.93128 -2.27645,0.51737 -4.75984,1.13822 -1.65559,0.4139 -3.41466,0.82779 -1.75907,0.4139 -3.62161,0.8278 -0.8278,1.2417 -1.55212,2.58687 -0.72432,1.24169 -1.44864,2.58686 -0.72433,1.34517 -1.44865,2.69034 -0.62085,1.2417 -1.34517,2.48339 -1.03474,2.27644 -2.17296,4.03551 -0.51738,0.8278 -1.13823,1.86254 -0.51737,0.93128 -1.03474,1.96602 -0.93127,1.96602 -1.6556,4.34594 -0.31042,1.03474 -0.72432,2.06949 -0.4139,1.03474 -0.93127,2.06949 -3.10424,5.79458 -5.89805,11.48568 -2.79382,5.69111 -4.65636,12.10653 z"
       id="path1061" />
  </g>
</svg>
